# xmcd
#
# Track frame offsets:
#	150
#	22323
#	39021
#	55644
#	70017
#	90015
#	101088
#	117186
#	131409
#	147057
#
# Disc length: 2185 seconds
#
# Revision: 0
# Processed by: cddbd v1.5.2PL0 Copyright (c) Steve Scherf et al.
# Submitted via: audiograbber 1.83.01
#
DISCID=7508870a
DTITLE=Toby Keith - Chronicles - Disc 2
DYEAR=1900
DGENRE=Country
TTITLE0=Who's That Man
TTITLE1=Big Ol' Truck
TTITLE2=Victoria's Secret
TTITLE3=No Honor Among Thieves
TTITLE4=Upstairs Downtown
TTITLE5=You Ain't Much Fun
TTITLE6=In Other Words
TTITLE7=Woman Behind the Man
TTITLE8=Life Was a Play (The World a Stage)
TTITLE9=Boomtown
EXTD=
EXTT0=
EXTT1=
EXTT2=
EXTT3=
EXTT4=
EXTT5=
EXTT6=
EXTT7=
EXTT8=
EXTT9=
PLAYORDER=
